<?xml version="1.0" encoding="utf-8"?>
<!-- Generator: Adobe Illustrator 24.0.1, SVG Export Plug-In . SVG Version: 6.00 Build 0)  -->
<svg version="1.1" id="Layer_1" xmlns="http://www.w3.org/2000/svg" xmlns:xlink="http://www.w3.org/1999/xlink" x="0px" y="0px"
	 viewBox="0 0 230 210" style="enable-background:new 0 0 230 210;" xml:space="preserve">
<style type="text/css">
	.st0{fill:#7FD9B2;}
	.st1{fill:#FCAFB7;}
	.st2{fill:#FFFFFF;}
	.st3{fill:#F36E72;}
	.st4{fill:#FEE253;}
	.st5{fill:#FDE992;}
	.st6{fill:#FFD2D9;}
</style>
<g>
	<path class="st0" d="M29.2,97.6c-2.2,4.5-4.4,9.3-3.7,14.3c0.9,5.9,5.8,10.3,10.9,13.6c4.1,2.6,8.5,4.8,12,8c1.5,1.3,2,3.5,1.1,5.2
		c-4.8,10-8.4,20.6-10.6,31.4c-0.4,1.7,1,3.3,2.7,3.2l17.3-0.2c0.9,0,1.9,0,2.6-0.5c0.9-0.6,1.3-1.6,1.7-2.6
		c3.9-11,7.8-21.9,11.7-32.9c0.6-1.8,1.3-3.7,0.9-5.5c-0.4-2-1.9-3.6-3.3-5c-2.9-2.9-6-5.5-9.3-8c-1.6-1.2-3.4-2.5-4.4-4.2
		c-1.9-3.3-0.7-7.4,0.5-11C52.3,96.7,38.5,95.3,29.2,97.6z"/>
	<g>
		<path class="st0" d="M107.8,129.7c-1-2.2-3.5-3.2-5.7-4c-7.7-2.8-12.3-5.6-20-8.4c-2.2-0.8-4.5-1.7-6-3.4s-1.9-4.7-0.2-6.3l0-0.1
			c-3.7-4.4-9.3-7.2-15.1-7.5c-1,0-2,0-3,0.2c0.8,0.5,1.5,1.1,2.2,1.7c0.1,0.1,0.2,0.3,0.1,0.4c-0.5,1.6-1.1,3.3-1.3,5
			c-0.3,1.7-0.2,3.5,0.5,5.1c0.7,1.6,2,2.8,3.4,3.9c3,2.3,5.9,4.6,8.7,7.2c2.4,2.3,5.6,4.9,5.6,8.5c0,1.5-0.5,2.9-1,4.3
			c1.9,0.5,3.9,0.9,5.8,1.3c1.9,0.4,3,2.3,2.5,4.1c-2.2,7.5-6.4,15.7-7,23.3c-0.2,2.3-1.1,5.2,1.4,6.2c0.6,0.3,1.3,0.3,2,0.2l8.3,0
			c2.5-0.2,5.1-0.5,7-2.1c1.3-1.2,2-2.9,2.7-4.5c3.5-9.2,6.3-19.6,8.8-29.1C108.1,133.8,108.6,131.6,107.8,129.7z"/>
	</g>
	<g>
		<path class="st1" d="M123,55.1c-1.5-1.4-3.6-2.4-5.3-3.4c-6.3-3.9-12.9-7.5-19.7-10.4c-14.2-6-29.3-9.1-44.3-12.3
			c-8-1.7-24.9,7.4-33.5,26.3c-8.6,18.8-12.9,36.6,1.9,42c24.5,8.9,49.1,12.9,73.5,21.9c0,0,25-54.9,26.6-59.1
			C123,58.5,124.4,56.4,123,55.1z"/>
		<g>
			<path class="st1" d="M123.8,54.3c-1.6-1.5-3.6-2.4-5.4-3.5c-2-1.2-4-2.5-6.1-3.6c-4.1-2.3-8.3-4.4-12.6-6.3
				C91,37,81.8,34.3,72.6,32.1c-4.6-1.1-9.2-2.1-13.9-3.1c-2.8-0.6-5.6-1.5-8.6-1.2C44.9,28.4,40,31,35.8,34.1
				c-5.8,4.3-10.6,9.8-14.1,16c-2.1,3.7-3.8,7.6-5.3,11.5c-1.5,3.6-2.8,7.4-3.7,11.2c-1.5,5.9-2.4,12.9,0.6,18.5
				c1.3,2.5,3.5,4.6,6,5.9c1.8,1,3.7,1.6,5.6,2.2c2.4,0.8,4.7,1.6,7.1,2.4c9.3,2.9,18.8,5.4,28.3,7.9c9.5,2.5,19,5.1,28.3,8.2
				c2.3,0.8,4.6,1.6,6.9,2.4c0.4,0.2,1.1-0.1,1.3-0.5c0.9-2,1.8-4,2.7-6c2.2-4.8,4.3-9.6,6.5-14.4c2.6-5.8,5.2-11.5,7.8-17.3
				c2.2-4.9,4.5-9.9,6.7-14.8c0.7-1.6,1.4-3.2,2.1-4.7c0.2-0.6,0.5-1.1,0.7-1.7c0.4-1.1,1-2.1,1.3-3.2
				C124.9,56.4,124.7,55.2,123.8,54.3c-1-1-2.6,0.6-1.6,1.6c0.3,0.3,0.3,0.5,0.3,0.9c-0.1,0.4-0.3,1-0.5,1.4
				c-0.3,0.6-0.5,1.2-0.8,1.8c0,0.1-0.1,0.2-0.1,0.2c-0.1,0.2,0.1-0.3,0.1-0.1c0,0.1,0,0.1-0.1,0.2c-0.1,0.2-0.2,0.5-0.3,0.7
				c-0.6,1.5-1.3,2.9-1.9,4.4c-2.1,4.7-4.2,9.4-6.4,14.2c-2.6,5.7-5.1,11.4-7.7,17.1c-2.2,4.9-4.5,9.9-6.7,14.8
				c-0.7,1.6-1.5,3.2-2.2,4.9c-0.3,0.8-0.8,1.5-1,2.3c0,0,0,0.1,0,0.1c0.4-0.2,0.9-0.3,1.3-0.5c-9.1-3.4-18.5-6.1-27.9-8.7
				c-9.2-2.5-18.5-4.9-27.7-7.5c-4.7-1.4-9.3-2.8-14-4.4c-1.2-0.4-2.3-0.8-3.5-1.2c-0.8-0.3-1.4-0.5-2.2-0.9
				c-0.6-0.3-1.3-0.7-1.9-1.1c-0.1-0.1-0.3-0.2-0.4-0.3c0,0-0.2-0.1,0,0c-0.1,0-0.1-0.1-0.2-0.1c-0.3-0.2-0.5-0.5-0.8-0.7
				c-1-1-1.6-1.7-2.3-3c-0.4-0.7-0.5-1-0.7-1.6c-0.2-0.6-0.4-1.3-0.5-1.9c-0.1-0.3-0.1-0.6-0.2-1c-0.1-0.5-0.1-0.5-0.1-0.9
				c-0.1-0.7-0.1-1.4-0.1-2.2c0-1.5,0.1-3.1,0.3-4.5c1.1-7.5,4-14.8,7.1-21.7c3-6.7,7.2-12.8,12.7-17.7c2.2-2,4.6-3.8,7.2-5.3
				c2.3-1.3,4.3-2.2,6.8-2.9c0.5-0.1,1-0.3,1.6-0.4c0.2,0,0.5-0.1,0.7-0.1c0.2,0,0,0-0.1,0c0.1,0,0.1,0,0.2,0c0.1,0,0.3,0,0.4,0
				c0.5,0,0.9-0.1,1.4-0.1c0.2,0,0.4,0,0.6,0c0.1,0,0.2,0,0.3,0c0.4,0-0.2,0,0.1,0c2,0.3,4,0.8,5.9,1.2c2.3,0.5,4.5,1,6.8,1.5
				c9.1,2,18.1,4.3,26.9,7.6c8.7,3.2,16.8,7.5,24.7,12.4c1.7,1,3.5,1.9,4.9,3.2C123.3,56.9,124.9,55.3,123.8,54.3z"/>
		</g>
	</g>
	<path class="st2" d="M119.7,100.7c8-17.5,11.6-41.5,4.2-44.9C116.4,52.3,100,62,92,79.5s-11,32.3,3.1,39.5
		C102.3,122.8,111.8,118.2,119.7,100.7z"/>
	<path class="st1" d="M128.7,63.1c-0.3-2-0.7-4.2-1.9-5.9c-1-1.5-2.5-2.5-4.2-2.8c-4.3-0.9-8.9,1-12.6,3.1
		c-5.3,3.1-9.8,7.5-13.5,12.4c-2.1,2.8-3.9,5.9-5.4,9.1c-1.5,3.4-3,6.8-4.2,10.3c-1.9,5.7-3.5,12-2.4,18c0.5,2.5,1.5,5,3,7.1
		c1.8,2.3,4.1,4.2,6.6,5.5c1.8,0.9,3.7,1.5,5.7,1.5c2.1,0,4.2-0.6,6-1.6c5.2-2.8,9-8,11.8-13.1c1-1.8,1.9-3.6,2.7-5.4
		c2.9-6.5,5.2-13.3,6.7-20.2c0.7-3.2,1.2-6.5,1.5-9.8C129,68.5,129.1,65.8,128.7,63.1z M126.2,76.1c-1.1,6.7-3,13.3-5.4,19.6
		c-0.6,1.5-1.2,3-1.9,4.4c-2.7,5.8-6,11.8-11,15.9c-0.8,0.6-1.8,1.3-2.8,1.8c-0.2,0.1-0.4,0.2-0.6,0.3c-0.1,0.1-0.2,0.1-0.3,0.2
		c0,0,0,0,0,0c-0.1,0-0.1,0.1-0.2,0.1c-0.5,0.2-0.9,0.3-1.4,0.5c-0.2,0.1-0.4,0.1-0.7,0.2c-0.1,0-0.2,0-0.3,0.1c0,0-0.2,0-0.3,0
		c-0.4,0.1-0.9,0.1-1.3,0.1c-0.4,0-0.9,0-1.3-0.1c-0.1,0-0.1,0-0.2,0c-0.1,0-0.2,0-0.3-0.1c-0.2,0-0.4-0.1-0.7-0.2
		c-0.4-0.1-0.8-0.3-1.3-0.4c0,0,0,0,0,0c0,0,0,0-0.1,0c-0.1,0-0.2-0.1-0.3-0.1c-0.3-0.1-0.6-0.3-0.8-0.4c-1.2-0.7-2.4-1.4-3.4-2.3
		c-1.8-1.6-3.3-3.6-4.2-5.8c-2-5-1.2-10.7,0.2-15.8c0.9-3.3,2-6.5,3.3-9.6c1.3-3.3,2.8-6.5,4.6-9.5c3.1-5.2,7.2-10,12.1-13.6
		c2-1.5,4.2-2.8,6.5-3.8c0.1,0,0.4-0.2,0.6-0.3c0.3-0.1,0.6-0.2,0.8-0.3c0.5-0.2,1-0.3,1.5-0.4c0.5-0.1,1-0.2,1.5-0.3
		c0.1,0,0.2,0,0.3,0c0,0,0.2,0,0.2,0c0.2,0,0.4,0,0.7-0.1c0.4,0,0.9,0,1.3,0c0.1,0,0.2,0,0.3,0c0,0,0.1,0,0.2,0
		c0.2,0,0.4,0.1,0.5,0.1c0.4,0.1,0.7,0.2,1.1,0.3c0,0,0,0,0,0c0,0,0,0,0,0c0.1,0,0.2,0.1,0.2,0.1c0.2,0.1,0.3,0.2,0.5,0.3
		c0,0,0,0,0.1,0.1c0.1,0,0.1,0.1,0.2,0.1c0.2,0.1,0.3,0.3,0.4,0.4c0.1,0.1,0.1,0.1,0.2,0.2c0,0,0,0,0,0c0,0,0,0,0,0.1
		c0.1,0.2,0.2,0.3,0.3,0.5c0.1,0.2,0.2,0.4,0.3,0.5c0,0.1,0.1,0.2,0.1,0.2c0,0,0,0.1,0.1,0.1c0,0,0,0,0,0c0,0,0,0,0,0
		c0.2,0.4,0.3,0.9,0.4,1.3c0.6,2.2,0.7,4.4,0.7,6.8C126.9,70.4,126.6,73.3,126.2,76.1z"/>
	<path class="st1" d="M224.3,185.9c-1.6-1.7-3.9-2.6-6.1-3.3c-3.8-1.2-7.8-1.8-11.8-2.2c-6.4-0.7-12.8-0.9-19.3-1
		c-9.5-0.1-18.9,0.1-28.4,0.5c-8.4,0.3-16.9,0.8-25.3,1.7c-5.5,0.6-11.1,1.3-16.5,2.6c-3.2,0.8-6.6,1.7-9.5,3.3
		c-1.7,0.9-3.3,2.2-4.1,4c-0.6,1.3-0.6,2.7-0.4,4.1c0.1,1.2,0.4,2.5,1.2,3.5c1.1,1.4,2.6,2.3,4.3,2.9c2.8,1.1,5.8,1.5,8.7,1.9
		c5.1,0.7,10.2,0.9,15.3,1c8,0.2,16,0.1,24.1-0.1c9.6-0.2,19.2-0.6,28.8-1.2c6.7-0.4,13.4-1,20.1-2c4.1-0.6,8.2-1.3,12.1-2.6
		c2.3-0.7,4.6-1.7,6.4-3.2c1.1-1,2-2.3,2.3-3.8c0.1-0.6,0.2-1.3,0.2-2C226.1,188.6,225.5,187.1,224.3,185.9z M219.7,184.9
		C219.6,184.9,219.6,184.9,219.7,184.9L219.7,184.9z M219.1,196.7C219.1,196.7,219.1,196.7,219.1,196.7L219.1,196.7z M224.5,191.1
		c0,0.1,0,0.4,0,0.4c0,0.1,0,0.2-0.1,0.3c-0.1,0.3-0.2,0.6-0.3,0.9c0,0,0,0,0,0c0,0,0,0,0,0c0,0.1-0.1,0.1-0.1,0.2
		c-0.1,0.1-0.2,0.3-0.2,0.4c-0.1,0.1-0.2,0.3-0.3,0.4c0,0,0,0,0,0c0,0,0,0,0,0c-0.1,0.1-0.1,0.1-0.2,0.2c-0.3,0.3-0.6,0.6-0.9,0.8
		c0,0-0.1,0.1-0.1,0.1c-0.1,0.1-0.2,0.1-0.3,0.2c-0.2,0.1-0.4,0.3-0.6,0.4c-0.4,0.3-0.9,0.5-1.4,0.8c-0.3,0.1-0.5,0.3-0.8,0.4
		c0,0,0,0-0.1,0c-0.1,0-0.1,0.1-0.2,0.1c-0.2,0.1-0.3,0.1-0.5,0.2c-0.7,0.3-1.4,0.5-2,0.7c-1.7,0.5-3.5,1-5.2,1.3
		c-5.2,1.1-10.4,1.7-15.7,2.2c-8.1,0.8-16.3,1.2-24.5,1.5c-9.3,0.4-18.7,0.6-28,0.7c-6.4,0-12.7-0.1-19.1-0.5
		c-4-0.3-7.7-0.6-11.5-1.4c-1.2-0.3-2.4-0.6-3.6-1c-0.1,0-0.2-0.1-0.4-0.1c-0.1,0-0.1,0-0.1,0c0,0,0,0-0.1,0
		c-0.2-0.1-0.4-0.2-0.6-0.3c-0.4-0.2-0.7-0.4-1.1-0.6c-0.1-0.1-0.1-0.1-0.2-0.2c0,0-0.1,0-0.1-0.1c-0.1-0.1-0.3-0.2-0.4-0.3
		c-0.1-0.1-0.2-0.2-0.3-0.3c-0.1-0.1-0.1-0.1-0.1-0.2c0,0,0,0,0,0c-0.2-0.2-0.3-0.5-0.4-0.7c0-0.1-0.1-0.1-0.1-0.2c0,0,0,0,0,0
		c0-0.1-0.1-0.2-0.1-0.4c-0.1-0.3-0.1-0.5-0.2-0.8c0-0.1-0.1-0.6,0-0.2c0-0.1,0-0.3,0-0.4c-0.1-0.6-0.1-1.1-0.1-1.7
		c0-0.2,0-0.3,0-0.5c0,0,0,0,0,0c0,0,0,0,0,0c0-0.1,0-0.2,0-0.3c0-0.2,0.1-0.3,0.1-0.5c0-0.1,0.1-0.2,0.1-0.2c0,0,0,0,0,0
		c0,0,0,0,0,0c0.2-0.3,0.4-0.7,0.6-1c0,0,0,0,0,0c0,0,0,0,0,0c0.1-0.1,0.1-0.2,0.2-0.2c0.1-0.2,0.3-0.3,0.5-0.5
		c0.2-0.2,0.3-0.3,0.5-0.5c0,0,0.1-0.1,0.1-0.1c0,0,0,0,0,0c0,0,0,0,0,0c0.1-0.1,0.2-0.2,0.3-0.2c0.5-0.3,0.9-0.6,1.4-0.9
		c0.6-0.3,1.2-0.6,1.8-0.8c0,0,0,0,0,0c0,0,0,0,0.1,0c0.1,0,0.2-0.1,0.2-0.1c0.2-0.1,0.4-0.1,0.5-0.2c0.4-0.1,0.8-0.3,1.1-0.4
		c4.1-1.4,8.4-2.2,12.7-2.9c6.8-1.1,13.7-1.7,20.5-2.1c9.5-0.6,19.1-1,28.6-1.2c7.8-0.1,15.6-0.1,23.4,0.3c5.1,0.3,10.1,0.6,15,1.6
		c1.7,0.3,3.3,0.7,5,1.2c0.7,0.2,1.3,0.4,2,0.7c0.1,0,0.1,0.1,0.2,0.1c0,0,0,0,0.1,0c0.1,0.1,0.3,0.1,0.4,0.2
		c0.3,0.1,0.5,0.2,0.8,0.4c0.4,0.2,0.9,0.5,1.3,0.8c0,0,0.2,0.1,0.2,0.2c0.1,0.1,0.1,0.1,0.2,0.2c0.2,0.1,0.3,0.3,0.5,0.4
		c0.1,0.1,0.3,0.3,0.4,0.4c0,0,0.1,0.1,0.1,0.1c0,0.1,0.1,0.1,0.1,0.2c0.1,0.1,0.2,0.3,0.3,0.5c0,0.1,0.1,0.3,0.2,0.4
		c0.1,0.3,0.2,0.5,0.2,0.8c0,0.1,0,0.2,0,0.2c0,0,0,0,0,0c0,0,0,0,0,0c0,0.2,0,0.3,0,0.5C224.5,190.5,224.5,190.8,224.5,191.1z"/>
	<g>
		<circle class="st0" cx="149.5" cy="122.5" r="5.9"/>
	</g>
	<g>
		<circle class="st0" cx="164.5" cy="100.6" r="4.2"/>
	</g>
	<g>
		<circle class="st0" cx="173.2" cy="176.2" r="7.1"/>
	</g>
	<g>
		<circle class="st0" cx="125" cy="66.2" r="4.8"/>
	</g>
	<polygon class="st3" points="114.6,85.4 96.7,92.1 100.1,72.7 	"/>
	<polygon class="st3" points="180.4,129.1 169,119.5 183.4,114.5 	"/>
	<polygon class="st3" points="150.5,191.4 132.1,175.9 155.4,167.6 	"/>
	
		<rect x="160.3" y="151.7" transform="matrix(0.9464 0.3229 -0.3229 0.9464 59.9164 -45.3133)" class="st4" width="12.5" height="12.5"/>
	
		<rect x="128.3" y="133.9" transform="matrix(0.9607 -0.2775 0.2775 0.9607 -33.4234 42.5707)" class="st4" width="10.9" height="10.9"/>
	
		<rect x="110.4" y="97.8" transform="matrix(-0.6684 -0.7438 0.7438 -0.6684 120.1741 267.8918)" class="st4" width="18.8" height="18.8"/>
	<path d="M142.9,101.4c0-0.7-1.1-0.7-1.1,0c0,0.6,0,1.3,0,1.9c-1.6-2.7-4.2-4.7-7.2-5.5c-0.7-0.2-1,0.9-0.3,1.1
		c2.7,0.7,5.1,2.5,6.5,4.9c-0.3-0.2-0.6-0.3-0.9-0.4c-0.7-0.2-1,0.8-0.3,1.1c1,0.4,1.8,1.1,2.3,2c0.3,0.5,1.1,0.3,1.1-0.3
		C142.9,104.6,142.9,103,142.9,101.4z"/>
	<path d="M171.5,136.9c-0.1,0.4-0.2,0.9-0.3,1.3c-0.7-2.8-1.8-5.5-3.2-7.9c-0.4-0.6-1.4-0.1-1,0.6c1.4,2.3,2.4,4.7,3,7.2
		c-0.6-0.4-1.3-0.7-2.1-1c-0.7-0.2-1,0.9-0.3,1.1c1.1,0.3,2,0.9,2.8,1.7c0,0.1,0,0.2,0.1,0.3c0.1,0.3,0.4,0.5,0.6,0.4
		c0.3,0.2,0.7,0,0.8-0.3c0.2-1,0.4-2,0.7-3C172.8,136.5,171.7,136.2,171.5,136.9z"/>
	<path d="M159.8,85.7c0.1-0.7-1-1-1.1-0.3c-0.1,0.5-0.1,0.9-0.2,1.4c-1.1-2.5-2.9-4.7-5.1-6.3c-0.6-0.4-1.1,0.5-0.6,1
		c2.1,1.6,3.7,3.7,4.7,6c-0.5-0.2-1.1-0.3-1.7-0.3c-0.7,0-0.7,1.2,0,1.1c0.9,0,1.7,0.3,2.3,0.8c0,0.1,0.1,0.1,0.1,0.2
		c0.1,0.2,0.2,0.4,0.4,0.4c0,0,0,0,0,0.1c0.4,0.6,1.1,0.2,1-0.4C159.5,88.2,159.6,86.9,159.8,85.7z"/>
	<path d="M119.9,82c-0.2-1-0.3-2-0.5-2.9c-0.1-0.7-1.1-0.4-1.1,0.2c-1.1-1.5-2.3-3-3.7-4.3c-0.5-0.5-1.3,0.3-0.8,0.8
		c1.6,1.5,2.9,3.2,4.1,5c-0.7-0.3-1.4-0.5-2.1-0.7c-0.7-0.2-1,0.9-0.3,1.1c1.2,0.3,2.4,0.7,3.5,1.4C119.5,83,120,82.5,119.9,82z"/>
	<path d="M121.7,125.1c0,0.8-0.1,1.5-0.1,2.3c-1.1-2.1-2.6-4-4.5-5.5c-0.6-0.5-1.4,0.3-0.8,0.8c1.7,1.4,3.2,3.2,4.2,5.2
		c-0.4-0.3-0.9-0.5-1.4-0.7c-0.7-0.3-1,0.8-0.3,1.1c1,0.4,2,1,2.7,1.8c0.4,0.4,0.9,0.1,1-0.4c0.1-1.5,0.1-3.1,0.2-4.6
		C122.8,124.3,121.7,124.3,121.7,125.1z"/>
	<path d="M147.7,160.6c-0.1,0.4-0.3,0.7-0.4,1.1c-0.2-2.7-0.8-5.4-1.8-7.9c-0.3-0.7-1.4-0.4-1.1,0.3c1,2.5,1.6,5.1,1.8,7.8
		c-0.3-0.4-0.6-0.9-0.9-1.3c-0.4-0.6-1.4,0-1,0.6c0.8,1.1,1.5,2.1,2.3,3.2c0.3,0.4,0.9,0.3,1-0.1c0.4-1.1,0.8-2.2,1.3-3.3
		C149.1,160.2,148,159.9,147.7,160.6z"/>
	<path d="M187.3,169.5c-0.1,0.1-0.1,0.3-0.2,0.4c-0.1-2.4-0.3-4.8-0.8-7.1c-0.1-0.7-1.2-0.4-1.1,0.3c0.5,2.4,0.7,4.8,0.8,7.2
		c-0.3-0.5-0.6-1.1-0.9-1.6c-0.4-0.6-1.3-0.1-1,0.6c0.7,1.2,1.3,2.4,2,3.6c0.2,0.3,0.8,0.4,1,0c0.4-0.9,0.8-1.8,1.2-2.7
		C188.5,169.4,187.6,168.8,187.3,169.5z"/>
	<g>
		<circle cx="176.2" cy="146.4" r="1.1"/>
	</g>
	<g>
		<circle cx="142.8" cy="134.3" r="1.1"/>
	</g>
	<g>
		<circle cx="136.5" cy="116.6" r="1.1"/>
	</g>
	<g>
		<circle cx="141.8" cy="167.4" r="1.1"/>
	</g>
	<g>
		<circle cx="153.2" cy="145.4" r="1.1"/>
	</g>
	<g>
		<circle cx="177.9" cy="163.6" r="1.1"/>
	</g>
	<g>
		<circle cx="162.2" cy="114.5" r="1.1"/>
	</g>
	<g>
		<circle cx="100.3" cy="103.8" r="1.1"/>
	</g>
	<g>
		<circle cx="145.9" cy="79.6" r="1.1"/>
	</g>
	<g>
		<circle cx="112.3" cy="66.2" r="1.1"/>
	</g>
	<g>
		<circle cx="103.7" cy="29.2" r="1.1"/>
	</g>
	<g>
		<circle cx="113" cy="30.9" r="1.1"/>
	</g>
	<path d="M109.5,33.8c-1,1.4-3.1,1.2-4.1-0.2c-0.4-0.6-1.4,0-1,0.6c1.4,2.2,4.5,2.2,6,0.2C110.9,33.8,109.9,33.2,109.5,33.8z"/>
	<path d="M119,17.9c-1.3-3.2-3.2-6.1-5.8-8.3c-2.5-2.2-5.5-3.6-8.8-4.3c-3.2-0.7-6.6-0.5-9.6,1c-0.7,0.4-1.4,0.9-2,1.4
		c-2.5,2.3-3.9,5.6-4.7,8.9c-0.2,0.8-0.4,1.7-0.6,2.6c-0.1,0.7-0.3,1.4-0.1,2.2c0.1,0.6,0.4,1.2,1,1.3c0.2,0,0.3,0,0.5,0
		c-0.5,1.3-1,2.5-1.5,3.8c-0.3,0.8-0.6,1.5-0.9,2.3c0,0.1,0,0.2,0,0.2c-1.1,3.6-0.5,7.8,1.9,10.8c0.3,0.4,1.1,0,0.7-0.4
		c-2.2-2.9-2.9-6.7-1.8-10.2c0-0.1,0-0.1,0-0.2c0.9-2.5,1.9-4.9,3-7.3c0.5-0.6,1.1-1.3,1.6-1.9c0.7-0.8,1.4-1.5,2.6-1.5
		c-0.8,0.2-1.5,0.8-1.8,1.5c-0.5,1-0.4,2.3,0.4,3.2c0.7,0.9,1.9,1.2,3,0.7c0.5-0.2,0.1-1-0.4-0.7c-0.7,0.3-1.5,0-1.9-0.6
		c-0.5-0.6-0.5-1.6-0.2-2.3c0.3-0.7,1-1.2,1.7-1c0.8,0.2,1.3,0.9,1.5,1.7c0.1,0.5,0.8,0.3,0.8-0.1c0.1,0.2,0.3,0.3,0.4,0.5
		c1,1.2,2.4,2.3,3.9,2.9c1.5,0.6,3.1,0.8,4.7,0.5c0.8-0.2,1.5-0.5,2.1-1c0.3-0.2,0.5-0.5,0.9-0.7c0.5-0.2,0.7,0.2,0.9,0.6
		c0.4,0.6,0.9,1.4,1.7,1.5c0.7,0.1,1.2-0.3,1.6-0.9c0.1-0.3,0.3-0.4,0.6-0.4c0.4,0,0.5,0.4,0.7,0.7c0.2,0.3,0.5,0.6,0.7,0.8
		c0,1.2-0.2,2.4-0.4,3.5c-1.1,4.9-4.6,9.7-9.9,10c-2.7,0.1-5.2-1-6.9-3.2c-1.7-2.1-2.5-5-2-7.7c0.1-0.5-0.7-0.8-0.8-0.2
		c-0.5,3.3,0.6,6.9,3,9.3c-1.2,0.9-2.1,2.1-2.4,3.6c-0.1,0.5,0.7,0.8,0.8,0.2c0.2-1.4,1.1-2.5,2.2-3.3c1,0.9,2.3,1.5,3.7,1.8
		c2.6,0.6,5.3,0,7.5-1.5c2.3-1.5,3.9-3.8,4.9-6.4c0.7-1.8,1.1-3.8,1.2-5.7c0.1,0,0.2,0.1,0.3,0.1c1.6,0.5,3-0.9,3.3-2.4
		C120.4,21.6,119.7,19.6,119,17.9z"/>
	<path d="M107.2,175.1c-1.5-0.5-3-0.6-4.6-0.7c-1.7-0.1-3.4-0.2-5.1-0.3c-3.5-0.2-7-0.4-10.5-0.5c-3.1-0.2-6.5-0.6-9.2,1.1
		c-1.2,0.7-2.2,1.8-2.6,3.2c-0.3,1.4-0.1,2.9,0.9,3.9c0.1,0.1,0.2,0.1,0.3,0.1c0,0,0.1,0,0.1,0c9,0.2,18.1,0,27.1-0.3
		c2.5-0.1,5.1-0.2,7.6-0.4c0.2,0,0.4-0.2,0.4-0.4C111.9,178.1,109.6,175.9,107.2,175.1z"/>
	<path d="M53.5,174.9c-3.2-0.4-6.6-0.8-9.8,0c-2.9,0.7-5.2,2.6-6.7,5.1c-0.8,1.6,0.3,3.4,2.1,3.5c0.8,0,1.6,0,2.3,0
		c3,0,6.1,0.1,9.1,0.1c1.1,0,2.1,0,3.2,0c1.2,0,2.5,0,3.7-0.3c1-0.3,1.9-0.9,2.3-1.9c0.5-1.1,0.4-2.3-0.1-3.3
		C58.5,175.9,55.9,175.2,53.5,174.9z"/>
	<path class="st2" d="M130.4,78.3c-0.7-0.8-1.7-1.1-2.7-0.9c-2,0.5-3.9,1.7-5.3,3.6c-0.3,0.4-0.6,1-0.4,1.5c0.2,0.5,0.6,0.6,1.1,0.6
		c1.6,0.2,3.2,0.1,4.7-0.4c-2.2,0.5-4.2,2.5-5.1,5c-0.2,0.6-0.4,1.4,0,1.9c0.3,0.3,0.7,0.4,1.1,0.3c1.4-0.1,2.8-0.3,4.1-0.8
		c-1.5,0.6-2.9,1.6-4,2.9c-0.3,0.4-0.7,0.9-0.7,1.5c0,0.6,0.4,1.1,0.8,1.4s1,0.3,1.5,0.3c3.5-0.2,6.7-3.4,7.5-7.4
		C133.9,84.5,132.7,80.7,130.4,78.3z"/>
	<path d="M134.1,85c-0.2-2.6-1.3-5.2-3.1-7.1c-2.6-2.5-6.5-0.2-8.4,2.1c-0.5,0.6-1.2,1.4-1.2,2.2c0,0.8,0.5,1.5,1.3,1.7
		c0.6,0.2,1.2,0.2,1.8,0.2c-1,1-1.8,2.2-2.3,3.5c-0.5,1.3-0.3,3,1.3,3.2c0.3,0,0.6,0,1,0c-0.8,0.7-1.5,1.6-1.7,2.6
		c-0.2,1.3,0.7,2.4,2,2.7c1,0.2,2.2,0,3.1-0.4C132,94.1,134.5,89.4,134.1,85z M132,89.5c-0.6,1.6-1.7,3.1-3.2,4.1
		c-0.6,0.4-1.3,0.8-2.1,1c-0.7,0.2-2,0.5-2.5-0.2c-0.7-0.9,0.6-2,1.2-2.6c0.8-0.8,1.7-1.4,2.8-1.8c0.8-0.3,0.5-1.7-0.4-1.4
		c-1.2,0.4-2.5,0.7-3.8,0.8c-0.5,0-0.9,0.1-0.9-0.5c0-0.5,0.2-1,0.4-1.4c0.9-1.8,2.4-3.4,4.4-3.9c0.9-0.3,0.5-1.6-0.4-1.4
		c-1.4,0.4-2.8,0.5-4.2,0.4c-0.5-0.1-1-0.1-0.7-0.7c0.3-0.5,0.7-1,1.1-1.4c1.4-1.4,4.2-3.3,6-1.6C132.5,81.6,133.4,85.9,132,89.5z"
		/>
	<path class="st2" d="M37.6,53.7C28.7,59,20.7,66.2,15,74.8c0.7,1.3,1.5,2.6,2.2,3.9c2.4,4.1,4.3,8.1,7.2,11.9
		c0.5,0.6,1,1.2,1.7,1.6c0.7,0.4,1.6,0.5,2.2,0.1c0.9-0.6,1-2,0.6-3c-0.3-1.1-1-2-1-3.1c0.9,1.4,1.8,2.8,3.1,3.7
		c1.4,0.9,3.3,1.1,4.6,0c1-0.9,1.2-2.3,1-3.6c-0.1-0.4-0.2-0.8-0.4-1.2c0.3,0.4,0.5,0.8,0.8,1.1c0.9,1,2.3,1.6,3.6,1.4
		s2.9-2.2,0.4-7c-1.2-2.9-2.9-6.7-4.1-9.6c0.5,1,1.1,2,2,2.7c0.9,0.7,2.2,1,3.2,0.4c1.4-0.8,1.4-2.9,1-4.5
		C41.9,64.1,39.5,59,37.6,53.7z"/>
	<path d="M43.1,66.8c-0.6-2.1-1.3-4.2-2.1-6.3c-0.9-2.4-1.8-4.7-2.7-7.1c0-0.1-0.1-0.1-0.1-0.2c0,0,0,0,0,0c0,0-0.1-0.1-0.1-0.1
		c-0.2-0.2-0.5-0.3-0.8-0.1c-7,4.2-13.5,9.5-18.7,15.8c-1.5,1.8-2.9,3.7-4.2,5.6c-0.1,0.2-0.1,0.5,0,0.7c1.1,2,2.3,3.9,3.4,5.9
		c1.1,1.9,2.1,3.8,3.2,5.6c1.1,1.8,2.2,3.7,3.7,5.2c0.7,0.7,1.6,1.2,2.6,1.3c0.9,0,1.7-0.5,2.2-1.2c0.4-0.7,0.4-1.6,0.3-2.3
		c1.1,1,2.4,1.7,4.1,1.6c1.4-0.1,2.6-0.9,3.1-2.2c0.2-0.6,0.4-1.2,0.4-1.8c0.9,0.7,2.1,1.1,3.3,0.9c0.9-0.1,1.7-0.7,2-1.6
		c0.6-1.3,0.4-2.7,0-4c-0.3-1-0.8-1.9-1.2-2.9c-0.4-0.9-0.8-1.8-1.2-2.7c-0.3-0.8-0.7-1.5-1-2.3c0.3,0.1,0.6,0.3,1,0.3
		c1.8,0.3,3.3-0.9,3.6-2.7C44.2,70.5,43.6,68.6,43.1,66.8z M41.4,73.6c-0.8,0.3-1.7-0.1-2.3-0.7c-0.7-0.7-1.2-1.5-1.6-2.4
		c-0.4-0.8-1.6-0.1-1.2,0.7c0.7,1.6,1.4,3.2,2.1,4.9c0.7,1.7,1.3,3.4,2.2,5c0.6,1.2,1.2,2.7,1.1,4.1c0,0.4-0.1,0.7-0.3,1
		c0,0.1-0.1,0.1-0.2,0.3c-0.1,0.1,0,0-0.1,0.1c-0.1,0-0.1,0.1-0.2,0.1c0.1,0,0,0-0.1,0c-0.1,0-0.2,0-0.3,0.1c-0.5,0.1-0.9,0-1.4-0.2
		c-1-0.4-1.7-1.1-2.2-2c-0.4-0.6-1.6-0.2-1.3,0.5c0.4,1,0.7,2.2,0.2,3.2c-0.4,0.9-1.3,1.4-2.3,1.4c-2.4,0-3.8-2.3-4.9-4.1
		c-0.3-0.6-1.4-0.4-1.3,0.4c0.1,0.9,0.4,1.7,0.8,2.6c0.3,0.7,0.6,1.4,0.4,2.1c-0.1,0.7-0.6,1.2-1.4,1c-0.8-0.2-1.4-0.9-1.9-1.5
		c-2.4-3-4.1-6.5-6-9.8c-1-1.9-2.2-3.7-3.2-5.5c4.4-6.5,10-12.2,16.4-16.8c1.6-1.2,3.3-2.3,5-3.3c1.2,3.4,2.6,6.7,3.8,10.2
		c0.6,1.7,1.1,3.6,1.4,5.4C42.6,71.4,42.7,73.2,41.4,73.6z"/>
	<path class="st5" d="M86.3,29.9c0,0-21.4-17.1-31.8-20c-10.2-2.8-21.4-2.5-30.8,2.7c-13.5,7.3-18.1,21.2-19,28
		C3.3,51.1,8.3,63.2,14.8,74.8c5.8-8.6,13.9-15.9,22.8-21.1c-0.1-0.3-0.2-0.7-0.3-1c-1.9-6-4.8-14-0.4-18.5
		c3.1-3.1,12.7-7.1,16.4-6.3c15,3.2,35.3,11.7,35.3,11.7C86.4,36.7,85.2,33.4,86.3,29.9z"/>
	<path d="M89.3,39.2c-1-1.3-1.9-2.8-2.4-4.4c-0.5-1.6-0.4-3.2,0.1-4.8c0-0.1,0-0.1,0-0.2c0,0,0,0,0,0c0-0.1,0-0.2,0-0.2
		c0,0,0,0,0-0.1c0-0.1-0.1-0.1-0.1-0.1c0,0,0,0,0-0.1c-1.3-1-2.6-2-3.9-3c-3-2.3-6-4.5-9.1-6.6c-3.6-2.5-7.2-4.8-11-6.9
		c-1.7-0.9-3.3-1.8-5.1-2.5c-1.9-0.8-3.9-1.4-6-1.8c-6-1.3-12.3-1.4-18.4-0.2c-5.8,1.2-11.2,3.8-15.7,7.5c-3.7,3.1-6.8,7-9.1,11.2
		c-1.8,3.4-3.2,7-4,10.8c-1.1,4.8-0.9,9.8,0.2,14.6c1.4,6.4,4.1,12.4,7.1,18.2c0.8,1.5,1.6,3,2.4,4.5c0.3,0.5,0.9,0.4,1.2,0
		c4.5-6.7,10.3-12.4,16.8-17.1c1.9-1.3,3.8-2.6,5.8-3.7c0.3-0.2,0.4-0.5,0.3-0.8c-1-2.9-2-5.8-2.6-8.8c-0.5-2.6-0.9-5.6,0.3-8.1
		c1-2.1,3.1-3.4,5.1-4.5c2.3-1.3,4.8-2.3,7.3-3c1.1-0.3,2.2-0.5,3.3-0.6c1.1-0.1,2,0.2,3.1,0.4c2.9,0.7,5.9,1.5,8.7,2.4
		c5.5,1.7,10.9,3.6,16.3,5.6c1.9,0.7,3.8,1.5,5.7,2.2c0.9,0.4,1.8,0.8,2.8,1.1c0,0,0.1,0,0.1,0.1C89.1,40.5,89.7,39.7,89.3,39.2z
		 M81.6,36c-5.4-2.1-10.8-4-16.4-5.7c-3-0.9-6-1.8-9-2.5c-1.2-0.3-2.5-0.7-3.7-0.7c-1.1,0-2.2,0.1-3.3,0.4c-2.6,0.6-5.2,1.6-7.6,2.8
		c-2.1,1-4.4,2.3-5.8,4.2c-1.8,2.3-2.1,5.3-1.8,8.1c0.3,3.1,1.3,6.1,2.2,9c0.2,0.6,0.4,1.2,0.6,1.8c-6.9,4.1-13.2,9.3-18.4,15.5
		c-1.3,1.5-2.4,3-3.6,4.6c-3-5.4-5.7-11-7.6-17c-1.6-5.2-2.6-10.8-1.8-16.3c0.5-3.4,1.6-6.7,3-9.8c1.9-4.1,4.4-7.9,7.5-11.1
		c3.9-3.9,8.7-6.9,14-8.6c5.7-1.8,11.9-2.2,17.8-1.4c2.6,0.3,5.2,0.8,7.6,1.7c1.6,0.5,3.1,1.3,4.6,2c3.7,1.9,7.2,4.1,10.7,6.4
		c3.3,2.2,6.5,4.5,9.6,6.8c1.1,0.9,2.3,1.7,3.4,2.6c0.1,0,0.1,0.1,0.2,0.1c0,0,0,0,0,0c0,0,0,0,0,0c0.1,0.1,0.2,0.2,0.3,0.2
		c0.2,0.1,0.3,0.3,0.5,0.4c0.2,0.2,0.4,0.4,0.7,0.5c-0.7,2.8-0.1,5.5,1.3,7.9C85.1,37.4,83.3,36.7,81.6,36z"/>
	<g>
		<path class="st1" d="M115.1,54.6c1.9,0,2.5-2.3,1-3.2c0,0-12.6-8-19.5-10.8C82.4,34.9,59,24.3,45.5,28.8
			c-15.1,5.1-9.9,25,4.2,24.9C73.1,53.7,101.5,54.6,115.1,54.6z"/>
		<g>
			<path class="st1" d="M115.1,55.7c1.9,0,3.3-1.7,2.9-3.5c-0.2-0.9-0.9-1.5-1.7-2c-1.6-1-3.2-2-4.8-3c-2.6-1.6-5.2-3.1-7.9-4.5
				c-2.6-1.4-5.2-2.6-7.9-3.7c-3-1.2-6-2.4-9-3.6c-3.3-1.3-6.7-2.6-10.1-3.8c-3.4-1.2-6.9-2.3-10.4-3.1c-3.3-0.8-6.7-1.5-10.2-1.7
				c-3-0.2-6.1-0.2-9.1,0.5c-2.8,0.6-5.5,1.9-7.6,3.8c-1.8,1.6-3.1,3.8-3.7,6.2c-0.6,2.3-0.5,4.7,0.1,7c0.6,2.3,1.8,4.4,3.4,6.2
				c1.7,1.8,3.9,3.2,6.2,3.9c1.3,0.4,2.7,0.6,4,0.6c1.9,0,3.9,0,5.8,0c4.1,0,8.2,0.1,12.3,0.1c4.1,0,8.3,0.1,12.4,0.2
				c3.9,0.1,7.9,0.1,11.8,0.2c3.6,0.1,7.2,0.1,10.7,0.2c3,0,6,0.1,9,0.1C112.7,55.7,113.9,55.7,115.1,55.7c0.6,0,1.2-0.5,1.1-1.1
				c0-0.6-0.5-1.1-1.1-1.1c-5.9,0-11.7-0.1-17.6-0.2c-7.6-0.1-15.3-0.3-22.9-0.4c-8-0.1-16-0.2-24-0.2c-0.8,0-1.5,0-2.3-0.1
				c-0.2,0-0.3,0-0.5,0c-0.3,0,0.3,0,0,0c-0.1,0-0.1,0-0.2,0c-0.3-0.1-0.6-0.1-0.9-0.2c-0.6-0.1-1.2-0.3-1.7-0.5
				c-0.1,0-0.5-0.2-0.2-0.1c-0.1,0-0.3-0.1-0.4-0.2c-0.3-0.1-0.5-0.3-0.8-0.4c-0.5-0.3-1-0.6-1.4-0.9c-0.1,0-0.3-0.2,0,0
				c-0.1,0-0.1-0.1-0.2-0.1c-0.1-0.1-0.2-0.2-0.3-0.3c-0.2-0.2-0.4-0.4-0.6-0.6c-0.4-0.4-0.8-0.8-1.1-1.2c-0.2-0.2,0.2,0.2,0,0
				c0-0.1-0.1-0.1-0.1-0.2c-0.1-0.1-0.2-0.2-0.2-0.3c-0.2-0.2-0.3-0.5-0.5-0.7c-0.3-0.5-0.5-1-0.8-1.4c0-0.1-0.1-0.1-0.1-0.2
				c0.1,0.3,0,0.1,0,0c0-0.1-0.1-0.2-0.1-0.4c-0.1-0.3-0.2-0.5-0.3-0.8c-0.2-0.5-0.3-1-0.4-1.6c0-0.1,0-0.2-0.1-0.3
				c0-0.1-0.1-0.3,0,0c0-0.1,0-0.1,0-0.2c0-0.3-0.1-0.6-0.1-0.8c0-0.5,0-1.1,0-1.6c0-0.1,0-0.3,0-0.4c0-0.1,0-0.1,0-0.2
				c-0.1,0.3,0,0.2,0,0c0-0.3,0.1-0.6,0.2-0.8c0.1-0.5,0.3-1,0.5-1.6c0-0.1,0.1-0.3,0.1-0.4c-0.2,0.3,0-0.1,0.1-0.1
				c0.1-0.3,0.2-0.5,0.4-0.8c0.3-0.5,0.6-1,0.9-1.4c-0.2,0.3,0.1-0.1,0.1-0.1c0.1-0.1,0.2-0.2,0.3-0.3c0.2-0.2,0.4-0.4,0.6-0.7
				c0.2-0.2,0.4-0.4,0.7-0.6c0.1-0.1,0.4-0.4,0.2-0.1c0.1-0.1,0.3-0.2,0.4-0.3c0.5-0.4,1.1-0.7,1.7-1c0.3-0.2,0.6-0.3,0.9-0.4
				c0,0,0.3-0.1,0,0c0.1,0,0.2-0.1,0.2-0.1c0.2-0.1,0.4-0.1,0.6-0.2c0.6-0.2,1.3-0.4,1.9-0.6c0.6-0.2,1.3-0.3,1.9-0.4
				c0.1,0,0.3,0,0,0c0.1,0,0.2,0,0.2,0c0.2,0,0.3,0,0.5-0.1c0.4,0,0.7-0.1,1.1-0.1c1.5-0.1,3-0.1,4.5,0c0.8,0.1,1.6,0.1,2.4,0.2
				c0.1,0,0.2,0,0.3,0c0,0,0.4,0,0.1,0c0.2,0,0.4,0.1,0.6,0.1c0.4,0.1,0.8,0.1,1.3,0.2c3.4,0.6,6.8,1.4,10.1,2.4
				c6.7,2,13.1,4.5,19.6,7.1c1.4,0.6,2.9,1.2,4.3,1.7c0.7,0.3,1.3,0.5,2,0.8c0.1,0.1,0.3,0.1,0.4,0.2c0.1,0,0.1,0.1,0.2,0.1
				c0.2,0.1-0.2-0.1,0,0c0.3,0.1,0.6,0.3,0.9,0.4c2.7,1.2,5.3,2.6,7.8,4.1c2.4,1.3,4.7,2.7,7.1,4.2c0.7,0.4,1.5,0.9,2.2,1.3
				c0.2,0.1,0.4,0.2,0.6,0.4c0,0,0.1,0.1,0.1,0.1c0,0,0,0,0,0c0,0,0.1,0,0.1,0c0.1,0.1,0.1,0.1,0,0c0,0,0.1,0.1,0.1,0.1
				c0.1,0.1,0.2,0.2,0,0c0,0.1,0.1,0.1,0.1,0.2c0.1,0.2,0-0.2,0,0c0,0,0.1,0.2,0,0.2c0-0.1,0-0.1,0-0.2c0,0,0,0.1,0,0.1
				c0,0.2,0.1,0.2,0,0c0,0.1,0,0.1,0,0.2c0,0,0,0,0,0.1c0,0.1,0,0.1,0-0.1c0,0.1-0.1,0.1-0.1,0.2c0,0,0,0,0,0.1
				c-0.1,0.1-0.1,0.1,0.1-0.1c0,0-0.1,0.1-0.1,0.2c-0.2,0.2,0.2-0.1,0,0c0,0-0.2,0.1-0.2,0.1c0,0,0.2-0.1,0,0c-0.1,0-0.2,0-0.2,0.1
				c0.3-0.1,0,0,0,0c-0.6,0-1.2,0.5-1.1,1.1C114,55.2,114.5,55.7,115.1,55.7z"/>
		</g>
	</g>
	<path class="st6" d="M63.5,29.9c-4.4-1.5-9.1-1.8-13.6-1c-1.1,0.2-1.8,1.6-1.5,2.6c0.4,1.2,1.4,1.7,2.6,1.5c0.2,0,0.5-0.1,0.7-0.1
		c0,0,0,0,0,0c0.2,0,0.3,0,0.5-0.1c0.5-0.1,1-0.1,1.5-0.1c1,0,2.1,0,3.1,0.1c0.2,0,0.5,0,0.7,0.1c0.1,0,0.2,0,0.4,0
		c0.5,0.1,1,0.2,1.5,0.3c1,0.2,2,0.5,3,0.8c1.1,0.4,2.4-0.4,2.6-1.5C65.2,31.3,64.6,30.2,63.5,29.9z"/>
	<g>
		<path class="st2" d="M48.5,59.4c-1.2,0.1-2.1,0.9-2.1,2.1c0,0.1,0,0.2,0,0.2c0,1.1,1,2.2,2.1,2.1c1.2-0.1,2.1-0.9,2.1-2.1
			c0-0.1,0-0.2,0-0.2C50.6,60.4,49.6,59.3,48.5,59.4z"/>
		<path class="st2" d="M82.3,74.5c-0.5-0.6-1-1.1-1.5-1.7c-0.1-0.2-0.3-0.4-0.4-0.5c0,0,0,0-0.1-0.1c0,0,0,0,0-0.1
			c-0.2-0.3-0.4-0.6-0.6-0.8c-0.9-1.2-1.8-2.5-2.6-3.8c-0.8-1.3-1.5-2.6-2.2-4c-0.3-0.7-0.7-1.4-1-2.1c-0.1-0.2-0.2-0.4-0.2-0.6
			c0,0,0-0.1,0-0.1c0,0,0,0,0-0.1c-0.2-0.4-0.3-0.8-0.5-1.1c-0.4-1-1.4-1.9-2.6-1.5c-1,0.3-1.9,1.5-1.5,2.6c1.1,2.8,2.4,5.6,4,8.2
			c-3.5-1.3-7.1-2.4-10.8-3.4c-1.1-0.3-2.4,0.4-2.6,1.5c-0.3,1.1,0.3,2.3,1.5,2.6c4.2,1.1,8.2,2.4,12.2,3.9c-4.5,0.3-9,1.6-13.4,2.8
			c-1.1,0.3-1.8,1.5-1.5,2.6c0.4,1.1,1.5,1.8,2.6,1.5c3.3-0.9,6.5-1.9,9.9-2.4c0.2,0,0.4-0.1,0.6-0.1c0.1,0,0.2,0,0.2,0
			c0,0,0,0,0.1,0c0.4,0,0.8-0.1,1.2-0.1c0.8-0.1,1.6-0.1,2.5-0.1c0.8,0,1.6,0,2.5,0.1c0.3,0,0.5,0.1,0.8,0.1c0,0,0.1,0,0.1,0
			c0,0,0.1,0,0.1,0c0.4,0.1,0.9,0.1,1.3,0.2c0.9,0.2,1.9-0.1,2.4-1C83.1,76.2,83,75.3,82.3,74.5z"/>
		<path class="st2" d="M55.2,61.9c-1.2,0.1-2.1,0.9-2.1,2.1c0,0.1,0,0.2,0,0.2c0,1.1,1,2.2,2.1,2.1c1.2-0.1,2.1-0.9,2.1-2.1
			c0-0.1,0-0.2,0-0.2C57.3,63,56.3,61.9,55.2,61.9z"/>
	</g>
</g>
</svg>
